<svg viewBox="0 0 1000 1000" width="200" height="200" xmlns="http://www.w3.org/2000/svg" fill="#2F4BFF"><g transform="translate(0,1000) scale(0.1,-0.1)"><path d="M2491 7900 c-107 -23 -202 -98 -249 -198 -23 -49 -27 -70 -27 -147 0 -77 4 -98 27 -147 15 -32 46 -76 70 -99 48 -46 2194 -1348 2324 -1410 222 -106 499 -110 718 -10 111 50 2297 1382 2338 1424 174 179 103 486 -133 573 -56 21 -181 21 -234 1 -22 -8 -521 -307 -1110 -664 -588 -357 -1091 -662 -1116 -676 -52 -31 -123 -36 -167 -13 -15 8 -517 311 -1117 673 -600 362 -1108 666 -1130 675 -53 21 -139 29 -194 18z M1195 7064 c-180 -45 -301 -210 -281 -384 9 -75 57 -170 110 -217 24 -21 194 -127 377 -236 184 -108 340 -201 348 -206 10 -6 -6 -31 -66 -102 -373 -445 -668 -981 -847 -1538 -167 -517 -245 -1112 -217 -1637 20 -376 36 -445 120 -536 167 -182 462 -135 573 90 27 56 30 147 12 462 -42 725 126 1458 478 2095 130 235 359 556 521 732 l57 61 386 -228 c212 -126 388 -230 390 -232 2 -3 -31 -45 -73 -94 -414 -482 -681 -1070 -773 -1702 -54 -376 -36 -953 35 -1099 36 -72 96 -130 172 -165 55 -26 77 -31 143 -31 66 0 88 5 143 31 116 54 192 157 204 274 3 29 -2 114 -11 188 -20 170 -21 465 -1 631 66 568 324 1115 716 1521 l74 77 495 -295 c608 -363 615 -367 720 -367 67 0 88 5 142 30 35 17 288 164 562 327 274 163 504 296 510 296 15 0 185 -189 263 -291 282 -370 457 -796 525 -1279 17 -126 15 -549 -3 -690 -17 -120 -11 -189 20 -254 109 -223 405 -270 572 -88 98 106 123 250 123 702 0 314 -9 418 -59 665 -115 572 -371 1093 -753 1533 -35 40 -61 76 -58 79 3 4 178 109 388 234 l383 227 59 -61 c73 -77 207 -244 289 -360 376 -531 602 -1116 693 -1789 23 -167 30 -632 13 -815 -17 -186 -15 -235 12 -309 30 -81 112 -162 194 -194 206 -78 432 45 474 260 37 194 46 719 17 1015 -94 948 -463 1829 -1066 2544 -48 56 -59 75 -49 82 8 5 165 98 349 207 373 220 421 257 460 357 60 156 10 324 -127 421 -94 68 -229 80 -336 31 -28 -13 -847 -495 -1819 -1070 -972 -576 -1772 -1047 -1778 -1047 -7 0 -810 473 -1786 1051 -976 578 -1796 1060 -1822 1071 -46 20 -155 32 -197 22z"/></g></svg>